<?xml version="1.0" standalone="no"?>
<!DOCTYPE svg PUBLIC "-//W3C//DTD SVG 20010904//EN"
 "http://www.w3.org/TR/2001/REC-SVG-20010904/DTD/svg10.dtd">
<svg version="1.0" xmlns="http://www.w3.org/2000/svg"
 width="700.000000pt" height="700.000000pt" viewBox="0 0 700.000000 700.000000"
 preserveAspectRatio="xMidYMid meet">
<metadata>
Created by potrace 1.14, written by Peter Selinger 2001-2017
</metadata>
<g transform="translate(0.000000,700.000000) scale(0.100000,-0.100000)"
fill="#000000" stroke="none">
<path d="M1014 6990 c-46 -10 -89 -44 -108 -84 -15 -31 -16 -281 -16 -2954 l0
-2919 23 -34 c12 -19 42 -44 67 -57 44 -22 50 -22 432 -22 l387 0 3 -397 c3
-381 4 -400 24 -433 28 -48 75 -78 137 -85 29 -3 948 -5 2043 -3 l1990 3 41
27 c22 14 47 42 56 61 16 32 17 258 17 2955 l0 2919 -23 34 c-12 19 -42 44
-67 57 -44 22 -50 22 -432 22 l-387 0 -3 398 c-3 376 -4 399 -23 431 -26 44
-62 70 -111 81 -47 11 -4004 11 -4050 0z m3846 -3030 l0 -2700 -1820 0 -1820
0 0 2700 0 2700 1820 0 1820 0 0 -2700z m920 -920 l0 -2700 -1820 0 -1820 0 0
290 0 290 1458 0 c1392 0 1459 1 1497 19 48 22 69 44 90 94 13 32 15 293 15
2372 l0 2335 290 0 290 0 0 -2700z"/>
<path d="M2042 5513 c-64 -32 -100 -114 -81 -188 12 -48 34 -76 80 -104 34
-21 40 -21 997 -21 938 0 964 1 1001 20 105 53 118 206 23 278 l-35 27 -976 2
c-884 2 -979 1 -1009 -14z"/>
<path d="M2085 4531 c-124 -30 -170 -174 -88 -272 52 -62 3 -59 1045 -59 929
0 953 0 992 20 141 68 114 275 -40 310 -46 11 -1865 11 -1909 1z"/>
<path d="M2065 3525 c-109 -38 -145 -174 -70 -263 55 -65 -4 -62 1044 -62
1047 0 990 -3 1048 63 73 84 43 210 -62 258 -38 18 -89 19 -980 18 -784 0
-947 -2 -980 -14z"/>
</g>
</svg>
